# Blender v2.83.5 OBJ File: 'low poly crown.blend'
# www.blender.org
mtllib low poly crown.mtl
o Cylinder_Cylinder.001
v 0.000000 -0.777690 -1.058731
v -0.000000 0.758840 -1.530133
v 0.622379 -0.777229 -0.856630
v 0.689751 -0.135920 -0.949360
v 1.006913 -0.777690 -0.327165
v 1.455243 0.758840 -0.472836
v 1.007030 -0.777229 0.327204
v 1.116041 -0.135920 0.362623
v 0.622305 -0.777690 0.856531
v 0.899390 0.758840 1.237903
v -0.000000 -0.777229 1.058854
v -0.000000 -0.135920 1.173475
v -0.622307 -0.777690 0.856531
v -0.899391 0.758840 1.237903
v -1.007030 -0.777229 0.327204
v -1.116041 -0.135920 0.362624
v -1.006913 -0.777690 -0.327165
v -1.455243 0.758840 -0.472837
v -0.622378 -0.777229 -0.856630
v -0.689751 -0.135920 -0.949360
v 0.000000 -0.768265 -1.000000
v -0.000000 0.768265 -1.471402
v 0.587785 -0.768265 -0.809017
v 0.655158 -0.126956 -0.901747
v 0.951057 -0.768265 -0.309017
v 1.399387 0.768265 -0.454688
v 0.951056 -0.768265 0.309017
v 1.060068 -0.126956 0.344437
v 0.587785 -0.768265 0.809017
v 0.864868 0.768265 1.190390
v -0.000000 -0.768265 1.000000
v -0.000000 -0.126956 1.114621
v -0.587785 -0.768265 0.809017
v -0.864869 0.768265 1.190389
v -0.951056 -0.768265 0.309017
v -1.060067 -0.126956 0.344437
v -0.951056 -0.768265 -0.309017
v -1.399387 0.768265 -0.454688
v -0.587785 -0.768265 -0.809017
v -0.655157 -0.126956 -0.901748
vt 1.000000 0.000000
vt 1.000000 1.000000
vt 0.900000 1.000000
vt 0.900000 0.000000
vt 0.800000 1.000000
vt 0.800000 0.000000
vt 0.700000 1.000000
vt 0.700000 0.000000
vt 0.600000 1.000000
vt 0.600000 0.000000
vt 0.500000 1.000000
vt 0.500000 0.000000
vt 0.400000 1.000000
vt 0.400000 0.000000
vt 0.300000 1.000000
vt 0.300000 0.000000
vt 0.200000 1.000000
vt 0.200000 0.000000
vt 0.100000 1.000000
vt 0.100000 0.000000
vt -0.000000 1.000000
vt -0.000000 0.000000
vt 1.000000 0.000000
vt 0.900000 0.000000
vt 0.900000 1.000000
vt 1.000000 1.000000
vt 0.800000 0.000000
vt 0.800000 1.000000
vt 0.700000 0.000000
vt 0.700000 1.000000
vt 0.600000 0.000000
vt 0.600000 1.000000
vt 0.500000 0.000000
vt 0.500000 1.000000
vt 0.400000 0.000000
vt 0.400000 1.000000
vt 0.300000 0.000000
vt 0.300000 1.000000
vt 0.200000 0.000000
vt 0.200000 1.000000
vt 0.100000 0.000000
vt 0.100000 1.000000
vt -0.000000 0.000000
vt -0.000000 1.000000
vn 0.3690 -0.2437 -0.8969
vn 0.7390 -0.2437 -0.6281
vn 0.9670 -0.2437 0.0738
vn 0.8257 -0.2437 0.5087
vn 0.2287 -0.2437 0.9425
vn -0.2287 -0.2437 0.9425
vn -0.8257 -0.2437 0.5087
vn -0.9670 -0.2437 0.0738
vn -0.7390 -0.2437 -0.6281
vn -0.3690 -0.2437 -0.8969
vn -0.3726 0.2435 0.8955
vn -0.7365 0.2435 0.6311
vn -0.9668 0.2435 -0.0777
vn -0.8278 0.2435 -0.5054
vn -0.2249 0.2435 -0.9435
vn 0.2249 0.2435 -0.9435
vn 0.8278 0.2435 -0.5054
vn 0.9668 0.2435 -0.0777
vn 0.7365 0.2435 0.6311
vn 0.3726 0.2435 0.8955
vn -0.0498 -0.9867 0.1544
vn 0.7499 0.6482 0.1319
vn -0.1315 -0.9867 0.0951
vn -0.3571 0.6482 -0.6725
vn -0.1623 -0.9867 0.0004
vn 0.1063 0.6482 0.7540
vn -0.1311 -0.9867 -0.0957
vn 0.5292 0.6482 -0.5475
vn -0.0505 -0.9867 -0.1542
vn -0.6842 0.6482 0.3341
vn 0.0505 -0.9867 -0.1542
vn 0.6842 0.6482 0.3341
vn 0.1311 -0.9867 -0.0957
vn -0.5292 0.6482 -0.5475
vn 0.1623 -0.9867 0.0004
vn -0.1063 0.6482 0.7540
vn 0.1315 -0.9867 0.0951
vn 0.3571 0.6482 -0.6725
vn 0.0498 -0.9867 0.1544
vn -0.7499 0.6482 0.1319
usemtl None
s off
f 1/1/1 2/2/1 4/3/1 3/4/1
f 3/4/2 4/3/2 6/5/2 5/6/2
f 5/6/3 6/5/3 8/7/3 7/8/3
f 7/8/4 8/7/4 10/9/4 9/10/4
f 9/10/5 10/9/5 12/11/5 11/12/5
f 11/12/6 12/11/6 14/13/6 13/14/6
f 13/14/7 14/13/7 16/15/7 15/16/7
f 15/16/8 16/15/8 18/17/8 17/18/8
f 17/18/9 18/17/9 20/19/9 19/20/9
f 19/20/10 20/19/10 2/21/10 1/22/10
f 21/23/11 23/24/11 24/25/11 22/26/11
f 23/24/12 25/27/12 26/28/12 24/25/12
f 25/27/13 27/29/13 28/30/13 26/28/13
f 27/29/14 29/31/14 30/32/14 28/30/14
f 29/31/15 31/33/15 32/34/15 30/32/15
f 31/33/16 33/35/16 34/36/16 32/34/16
f 33/35/17 35/37/17 36/38/17 34/36/17
f 35/37/18 37/39/18 38/40/18 36/38/18
f 37/39/19 39/41/19 40/42/19 38/40/19
f 39/41/20 21/43/20 22/44/20 40/42/20
f 1/1/21 3/4/21 23/24/21 21/23/21
f 4/3/22 2/2/22 22/26/22 24/25/22
f 3/4/23 5/6/23 25/27/23 23/24/23
f 6/5/24 4/3/24 24/25/24 26/28/24
f 5/6/25 7/8/25 27/29/25 25/27/25
f 8/7/26 6/5/26 26/28/26 28/30/26
f 7/8/27 9/10/27 29/31/27 27/29/27
f 10/9/28 8/7/28 28/30/28 30/32/28
f 9/10/29 11/12/29 31/33/29 29/31/29
f 12/11/30 10/9/30 30/32/30 32/34/30
f 11/12/31 13/14/31 33/35/31 31/33/31
f 14/13/32 12/11/32 32/34/32 34/36/32
f 13/14/33 15/16/33 35/37/33 33/35/33
f 16/15/34 14/13/34 34/36/34 36/38/34
f 15/16/35 17/18/35 37/39/35 35/37/35
f 18/17/36 16/15/36 36/38/36 38/40/36
f 17/18/37 19/20/37 39/41/37 37/39/37
f 20/19/38 18/17/38 38/40/38 40/42/38
f 19/20/39 1/22/39 21/43/39 39/41/39
f 2/21/40 20/19/40 40/42/40 22/44/40
